<?xml version="1.0" encoding="utf-8"?>
<svg viewBox="0 0 96 96" width="96" height="96" xmlns="http://www.w3.org/2000/svg">
  <rect x="0" y="0" width="96" height="96" style="fill: rgb(76, 16, 91);"/>
  <path d="M 74.99 73.005 L 64.346 85 C 63.16 83.217 61.825 81.537 60.356 79.977 C 58.993 78.532 57.484 77.227 55.856 76.089 C 52.73 73.92 48.719 72.837 43.818 72.837 C 36.497 72.837 30.866 70.71 26.923 66.459 C 24.648 63.963 23.008 60.956 22.142 57.693 C 21.388 55.008 21.01 52.002 21.01 48.676 C 21.01 42.707 22.01 36.866 24.009 31.148 C 26.008 25.432 29.331 20.646 33.977 16.788 C 37.02 14.297 40.621 12.579 44.472 11.781 C 46.978 11.245 49.535 10.984 52.096 11.001 C 58.002 11.001 62.807 12.345 66.512 15.035 C 67.437 15.704 68.295 16.462 69.077 17.294 C 72.572 21.015 74.517 26.096 74.914 32.541 C 74.964 33.386 74.991 34.231 74.99 35.076 C 74.99 41.777 73.68 48.128 71.062 54.125 C 68.442 60.123 64.204 64.585 58.349 67.514 C 59.637 67.567 60.924 67.665 62.207 67.813 C 63.458 67.961 64.612 68.155 65.671 68.392 C 66.495 68.574 67.308 68.803 68.105 69.076 C 70.611 69.95 72.905 71.259 74.99 73.005 Z M 36.807 50.281 C 36.802 51.28 36.853 52.278 36.959 53.271 C 37.226 55.705 37.851 57.566 38.834 58.856 C 39.79 60.103 41.163 60.962 42.702 61.277 C 43.456 61.443 44.228 61.522 45 61.517 C 47.876 61.587 50.633 60.367 52.516 58.194 C 52.899 57.763 53.253 57.306 53.575 56.828 C 55.057 54.609 56.205 52.185 56.979 49.629 C 57.369 48.359 57.685 47.07 57.925 45.761 C 58.714 41.51 59.107 37.356 59.107 33.302 C 59.112 32.318 59.062 31.333 58.959 30.356 C 58.696 27.956 58.084 26.123 57.123 24.855 C 56.221 23.673 54.933 22.847 53.483 22.518 C 52.732 22.33 51.905 22.235 50.999 22.235 C 48.123 22.166 45.366 23.385 43.483 25.559 C 43.101 25.989 42.746 26.446 42.424 26.924 C 40.312 30.05 38.849 33.754 38.032 38.033 C 37.51 40.733 37.149 43.462 36.951 46.205 C 36.855 47.561 36.808 48.923 36.807 50.281 Z" vector-effect="non-scaling-stroke" style="fill: rgb(230, 230, 230);"/>
</svg>